<?xml version="1.0" encoding="utf-8"?>
<!-- Generator: Adobe Illustrator 14.0.0, SVG Export Plug-In  -->
<!DOCTYPE svg PUBLIC "-//W3C//DTD SVG 1.1//EN" "http://www.w3.org/Graphics/SVG/1.1/DTD/svg11.dtd" [
	<!ENTITY ns_flows "http://ns.adobe.com/Flows/1.0/">
]>
<svg version="1.1"
	 xmlns="http://www.w3.org/2000/svg" xmlns:xlink="http://www.w3.org/1999/xlink" xmlns:a="http://ns.adobe.com/AdobeSVGViewerExtensions/3.0/"
	 x="0px" y="0px" width="536px" height="126px" viewBox="-1 -0.501 536 126" enable-background="new -1 -0.501 536 126"
	 xml:space="preserve">
<defs>
</defs>
<g>
	<defs>
		<rect id="SVGID_6_" y="3.817" width="129.706" height="91.299"/>
	</defs>
	<clipPath id="SVGID_7_">
		<use xlink:href="#SVGID_6_"  overflow="visible"/>
	</clipPath>
	<g clip-path="url(#SVGID_7_)">
		<defs>
			<rect id="SVGID_5_" y="3.817" width="129.706" height="91.299"/>
		</defs>
		<clipPath id="SVGID_8_">
			<use xlink:href="#SVGID_5_"  overflow="visible"/>
		</clipPath>
		<path clip-path="url(#SVGID_8_)" d="M119.659,12.644c5.766-2.123,11.39,10.237,9.761,18.913c-0.536,2.848-5.509,5.496-6.71,10.371
			c-2.276,9.23,1.189,27.051,2.44,35.995c0.623,4.44,2.831,11.433-3.05,12.201c-10.053,1.312-1.11-21.242-1.83-34.164
			c-0.171-3.015,0.311-10.89-0.61-14.642c-0.854-3.483-5.388-5.899-6.101-9.152C111.887,24.577,116.56,13.785,119.659,12.644"/>
		<path clip-path="url(#SVGID_8_)" d="M109.897,43.758c1.745,16.893-5.204,30.302-13.421,38.435
			C69.767,108.621,18.93,92.887,18.387,49.858c-0.067-5.503,1.818-14.501,3.661-18.913c5.295-12.689,19.272-24.86,37.824-26.843
			C87.093,1.193,107.549,20.989,109.897,43.758 M76.954,79.752c8.243-3.374,20.249-12.372,20.133-30.504
			C96.952,28.89,79.79,14.278,58.652,17.524C43.4,19.867,33.126,31.251,31.809,45.587C29.521,70.466,54.887,88.781,76.954,79.752"/>
		<path clip-path="url(#SVGID_8_)" fill="#FFFFFF" d="M97.086,49.248c0.116,18.132-11.89,27.13-20.133,30.504
			c-22.066,9.029-47.433-9.286-45.145-34.165c1.318-14.336,11.591-25.72,26.843-28.062C79.79,14.278,96.952,28.89,97.086,49.248
			 M33.639,53.519c4.148,36.617,62.111,33.402,61.617-4.881c-0.097-7.687-6.027-18.034-7.931-20.132
			c-6.119-6.747-15.496-11.054-28.064-9.151C43.162,21.789,31.692,36.357,33.639,53.519"/>
		<path clip-path="url(#SVGID_8_)" d="M95.256,48.638c0.494,38.283-57.469,41.498-61.617,4.881
			c-1.946-17.162,9.523-31.73,25.623-34.164c12.568-1.903,21.945,2.404,28.064,9.151C89.229,30.604,95.159,40.951,95.256,48.638"/>
		<path clip-path="url(#SVGID_8_)" d="M10.456,10.813c1.928,9.657,5.601,22.634-1.83,28.674c0.598,9.529-0.805,18.582,0,27.453
			c0.702,7.711,1.599,13.934,0.61,21.963c-2.544,0.707-3.008-0.049-5.491-0.61C1.012,72.26,8.619,57.582,4.965,40.097
			c-0.72-3.459-4.478-6.363-4.881-10.372c-0.695-6.918,3.124-12.195,3.051-18.912c1.562,5.229,0.189,12.793,0,18.303
			c2.379-4.332,1.47-11.952,1.83-18.303c3.203,3.508-0.366,13.788,1.83,18.303c2.196-4.515-1.373-14.795,1.83-18.303
			c-0.177,6.479,1.08,11.53,0.61,18.303C12.853,24.937,7.9,15.962,10.456,10.813"/>
	</g>
</g>
<g>
	<defs>
		<rect id="SVGID_4_" x="220.446" y="10.509" width="98.109" height="77.916"/>
	</defs>
	<clipPath id="SVGID_9_">
		<use xlink:href="#SVGID_4_"  overflow="visible"/>
	</clipPath>
	<g clip-path="url(#SVGID_9_)">
		<defs>
			<rect id="SVGID_3_" x="220.446" y="10.509" width="98.109" height="77.916"/>
		</defs>
		<clipPath id="SVGID_10_">
			<use xlink:href="#SVGID_3_"  overflow="visible"/>
		</clipPath>
		<path clip-path="url(#SVGID_10_)" d="M284.894,23.425c11.955-2.844,21.113-14.347,33.661-12.768
			c-0.279,6.691-8.044,8.171-13.349,10.446c-7.586,3.256-16.662,4.951-19.152,12.188c-3.182-2.043-7.486-2.96-10.446-5.223
			c-3.61,2.565-4.695-0.343-8.125,0.58C267.303,22.81,279.177,18.532,284.894,23.425"/>
		<path clip-path="url(#SVGID_10_)" d="M301.724,43.737c2.205,0.046,8.438-1.793,8.125,2.902c-1.868,3.25-7.062,1.74-9.866,1.74
			c-25.106,0-54.78,0.477-79.51-0.58v-2.321c-0.052-0.824-0.099-1.642,0.581-1.741C246.495,44.155,275.172,43.187,301.724,43.737"/>
		<path clip-path="url(#SVGID_10_)" d="M220.473,54.185h89.376c-3.186,13.644-14.016,19.645-22.054,28.438
			c-1.027,1.098-0.424,3.83-0.58,5.803h-44.107c-0.97-0.963-0.465-3.406-0.581-5.223C234.796,73.911,223.166,68.513,220.473,54.185"
			/>
		<path clip-path="url(#SVGID_10_)" d="M306.947,40.835h-84.153c0.25-10.48,7.597-11.7,13.348-15.669
			c2.124-0.383,2.229,1.254,4.062,1.161c1.718-7.266,9.732-11.462,17.991-8.705c4.916-4.388,17.748-8.346,22.054-0.581
			c3.228-1.271,5.287,0.482,7.545,1.741c-2.948,3.152-6.041-0.574-9.866-0.58c-7.8-0.012-13.209,6.349-16.25,12.188
			c2.769,5.107,10.11,2.141,13.929,0.58c1.207,5.364,9.111,1.532,11.027,8.125c2.054-6.071,5.426-10.824,12.188-12.188
			C303.61,29.473,305.571,34.863,306.947,40.835"/>
	</g>
</g>
<g>
	<defs>
		<rect id="SVGID_2_" x="406.119" y="3.499" width="124.881" height="117.668"/>
	</defs>
	<clipPath id="SVGID_11_">
		<use xlink:href="#SVGID_2_"  overflow="visible"/>
	</clipPath>
	<g clip-path="url(#SVGID_11_)">
		<defs>
			<rect id="SVGID_1_" x="406.119" y="3.499" width="124.881" height="117.668"/>
		</defs>
		<clipPath id="SVGID_12_">
			<use xlink:href="#SVGID_1_"  overflow="visible"/>
		</clipPath>
		<path clip-path="url(#SVGID_12_)" fill="#FFFFFF" d="M529.328,85.538c0,1.91,1.219,3.559,1.16,5.225
			c-0.365,10.178-5.49,20.875-6.964,29.598c-37.161,0.587-79.876,1.729-116.073-0.58c2.356-29.68-10.354-87.35,13.349-96.34
			c0.662-7.429-3.059-10.488-1.741-18.572c6.152-2.252,18.433-1.184,25.536-0.581c2.217,8.189-3.552,12.763-1.741,18.572
			c0.935,3.001,6.675,5.05,8.706,7.545c5.548,6.819,5.438,14.295,5.223,27.858c4.231,4.474,10.267,7.144,12.188,13.928
			c5.392-6.494,14.196-12.379,25.536-11.027c1.846,1.637,2.641,4.324,2.902,7.545c12.217,5.026,16.633-7.556,29.599-4.643
			C534.331,68.905,529.34,78.377,529.328,85.538 M522.944,93.083h-92.858c1.485,7.029,2.85,14.173,4.643,20.893h83.572
			C519.955,107.122,521.325,99.978,522.944,93.083 M521.783,86.119c1.869-3.238,4.126-12.433,0.58-15.67
			c-4.039,1.185-8.003,2.442-11.026,4.644c0.957,3.203,3.197,7.226,1.741,11.026H521.783z M506.113,86.119
			c4.469-13.134-19.088-13.383-14.509,0H506.113z M484.64,85.538c-3.227-8.443,6.593-11.34,5.804-17.41
			c-11.073,1.114-17.666,6.709-18.571,17.991c8.63-0.458,6.831-11.353,13.348-13.929c3.442,3.69-4.381,9.477-5.803,13.929
			C480.989,85.759,484.024,86.856,484.64,85.538 M464.907,85.538c0.384-10.051-3.911-15.432-9.866-19.151
			c-3.94,4.062-7.573,12.379-4.643,19.732h5.224c0.006-4.289-3.518-10.499-1.161-13.349c4.654,1.347,3.093,8.896,4.643,13.349
			C461.077,85.962,463.811,86.565,464.907,85.538 M445.175,68.708c6.274-5.897,7.121-26.685,0.581-34.241
			c-3.198-3.698-7.272-3.703-9.866-6.965V15.895h-8.125v12.187c-24.469,4.963-10.012,59.099-13.929,85.894h13.348
			c-0.975-8.692-3.761-15.582-4.643-24.375c3.029-3.278,0.957-7.532,1.741-11.606C425.832,69.921,437.172,63.839,445.175,68.708
			 M432.407,86.119h10.446c-0.505-3.708-0.87-7.423,0-11.026C435.802,70.681,427.84,78.963,432.407,86.119"/>
		<path clip-path="url(#SVGID_12_)" fill="#010101" d="M430.086,93.083h92.858c-1.619,6.896-2.989,14.039-4.644,20.894h-83.572
			C432.936,107.255,431.571,100.111,430.086,93.083"/>
		<path clip-path="url(#SVGID_12_)" fill="#010101" d="M522.363,70.449c3.546,3.238,1.289,12.433-0.58,15.67h-8.705
			c1.456-3.801-0.784-7.823-1.741-11.026C514.36,72.892,518.324,71.634,522.363,70.449"/>
		<path clip-path="url(#SVGID_12_)" fill="#010101" d="M491.604,86.119c-4.579-13.383,18.978-13.134,14.509,0H491.604z"/>
		<path clip-path="url(#SVGID_12_)" fill="#010101" d="M490.443,68.128c0.789,6.07-9.03,8.966-5.804,17.411
			c-0.615,1.317-3.65,0.22-5.223,0.58c1.423-4.451,9.245-10.238,5.804-13.929c-6.518,2.576-4.719,13.471-13.349,13.929
			C472.777,74.837,479.37,69.241,490.443,68.128"/>
		<path clip-path="url(#SVGID_12_)" fill="#010101" d="M455.041,66.387c5.955,3.72,10.25,9.101,9.866,19.151
			c-1.097,1.027-3.83,0.425-5.804,0.58c-1.549-4.45,0.012-12.002-4.643-13.348c-2.357,2.85,1.167,9.059,1.161,13.348h-5.224
			C447.468,78.766,451.101,70.45,455.041,66.387"/>
		<path clip-path="url(#SVGID_12_)" fill="#010101" d="M445.756,34.467c6.54,7.556,5.693,28.345-0.581,34.241
			c-8.003-4.869-19.343,1.213-20.893,9.285c-0.784,4.076,1.288,8.328-1.741,11.607c0.882,8.793,3.668,15.682,4.643,24.376h-13.348
			c3.917-26.796-10.54-80.932,13.929-85.894V15.895h8.125v11.608C438.484,30.764,442.558,30.77,445.756,34.467"/>
		<path clip-path="url(#SVGID_12_)" fill="#010101" d="M442.854,86.119h-10.446c-4.567-7.156,3.395-15.438,10.446-11.026
			C441.983,78.696,442.349,82.411,442.854,86.119"/>
	</g>
</g>
<path fill="none" stroke="#010101" stroke-width="7" stroke-miterlimit="10" d="M444.595,4.288
	c2.217,8.189-3.552,12.762-1.741,18.572c0.935,3,6.675,5.049,8.706,7.545c5.548,6.819,5.438,14.294,5.223,27.857
	c4.231,4.475,10.267,7.144,12.188,13.929c5.392-6.494,14.196-12.38,25.536-11.027c1.846,1.637,2.641,4.324,2.901,7.544
	c12.218,5.025,16.634-7.557,29.6-4.643c7.324,4.84,2.333,14.311,2.321,21.473c0,1.91,1.219,3.559,1.16,5.225
	c-0.365,10.179-5.49,20.875-6.964,29.598c-37.161,0.586-79.876,1.729-116.073-0.58c2.356-29.68-10.354-87.351,13.349-96.341
	c0.662-7.428-3.06-10.487-1.741-18.571C425.211,2.617,437.49,3.684,444.595,4.288z"/>
</svg>
