<?xml version="1.0" encoding="utf-8"?>
<!-- Generator: Adobe Illustrator 14.0.0, SVG Export Plug-In  -->
<!DOCTYPE svg PUBLIC "-//W3C//DTD SVG 1.1//EN" "http://www.w3.org/Graphics/SVG/1.1/DTD/svg11.dtd" [
	<!ENTITY ns_flows "http://ns.adobe.com/Flows/1.0/">
]>
<svg version="1.1"
	 xmlns="http://www.w3.org/2000/svg" xmlns:xlink="http://www.w3.org/1999/xlink" xmlns:a="http://ns.adobe.com/AdobeSVGViewerExtensions/3.0/"
	 x="0px" y="0px" width="348px" height="182px" viewBox="-0.892 -0.439 348 182" enable-background="new -0.892 -0.439 348 182"
	 xml:space="preserve">
<defs>
</defs>
<path d="M239.475,73.839l-24.657,15.083l8.478,4.928c-14.645,26.278-41.229,28.184-41.229,28.184V65.686
	c10.39,4.143,20.79,8.261,31.187,12.385c-0.037,0.094-0.073,0.187-0.11,0.28c0.327,0.119,0.671,0.206,0.978,0.363
	c2.722,1.396,4.625,1.218,5.849-2.135c1.168-3.2,0.274-4.68-2.869-5.534c-4.338-1.177-8.643-2.508-12.896-3.958
	c-7.372-2.513-14.74-5.038-22.096-7.599c0.184-0.117,0.367-0.237,0.556-0.342c3.181-1.769,6.301-3.042,9.917-0.77
	c1.12,0.704,3.05,0.986,4.267,0.534c7.375-2.739,14.662-5.716,21.946-8.696c1.095-0.448,2.011-1.333,3.01-2.015
	c-0.099-0.214-0.195-0.428-0.294-0.641c-6.905,0.579-12.81,4.652-19.456,6.135c-0.09-0.215-0.179-0.43-0.269-0.646
	c6.248-2.66,12.496-5.321,18.744-7.981c-0.091-0.324-0.182-0.648-0.273-0.972c-1.311,0.236-2.683,0.298-3.921,0.737
	c-4.559,1.616-9.066,3.378-13.611,5.033c-0.749,0.273-1.592,0.29-2.391,0.425c-0.047-0.2-0.093-0.401-0.14-0.601
	c6.395-2.677,12.791-5.353,19.186-8.029c-0.102-0.313-0.204-0.627-0.306-0.94c-6.524,2.094-13.048,4.189-19.571,6.283
	c-0.092-0.259-0.183-0.518-0.274-0.776c6.331-2.608,13.016-4.499,18.652-8.559c-2.5,0.273-4.849,0.877-7.15,1.626
	c-4.901,1.596-9.682,3.758-14.696,4.753c-4.037,0.801-6.375,2.692-7.644,6.339c-0.666,1.913-1.972,3.018-3.902,3.627
	c-0.812,0.256-1.622,0.517-2.433,0.774l-0.01-5.254l0.022-0.022v-6.276c9.529-2.366,16.584-11.03,16.584-21.305
	C198.649,9.825,188.812,0,176.677,0c-12.139,0-21.953,9.825-21.953,21.929c0,9.968,6.594,18.358,15.687,21.086v6.517l0.011,5.839
	c-1.424-0.507-2.85-1.009-4.271-1.521c-1.497-0.539-3.024-2.12-3.708-3.6c-4.249-9.189-11.035-11.239-20.103-10.186
	c-5.843,0.679-9.164,6.531-6.545,10.983c3.318,5.639,13.52,11.993,20.754,8.549c4.159-1.98,7.575-1.417,11.057-0.155
	c-1.44,0.473-2.883,0.935-4.32,1.415c-6.739,2.254-13.427,4.662-20.153,6.954c-1.747,0.595-3.605,0.882-5.319,1.548
	c-1.422,0.552-3.871,1.515-3.836,2.188c0.109,2.038,1.082,4.087,2.058,5.954c0.133,0.253,2.205-0.505,3.378-0.801
	c0.163-0.042,0.317-0.121,0.475-0.183c8.74-3.452,17.49-6.88,26.217-10.364c1.447-0.577,2.886-1.171,4.327-1.759l0.021,56.717
	c-34.022-2.771-41.417-31.181-41.417-31.181l8.5-4.972l-23.019-11.612l-2.985,26.837l7.169-4.207c0,0,6.404,39.628,57.152,39.628
	c50.716,0,57.223-36.034,57.223-36.034l7.81,4.567L239.475,73.839z M165.098,21.929c0-6.397,5.158-11.578,11.579-11.578
	c6.396,0,11.599,5.181,11.599,11.578c0,6.441-5.203,11.6-11.599,11.6C170.256,33.529,165.098,28.37,165.098,21.929"/>
<polygon points="5.001,159.416 0,159.416 0,157.332 12.224,157.332 12.224,159.416 7.327,159.416 7.327,180.495 5.001,180.495 "/>
<polygon points="32.702,159.416 29.577,159.416 29.577,157.332 38.189,157.332 38.189,159.416 35.028,159.416 35.028,178.411 
	38.189,178.411 38.189,180.495 29.577,180.495 29.577,178.411 32.702,178.411 "/>
<polygon points="57.107,157.332 59.433,157.332 59.433,178.411 68.947,178.411 68.947,180.494 57.107,180.494 "/>
<path d="M83.246,180.494v-2.084h1.875v-18.995h-1.875v-2.084h7.084c2.535,0,5.14,2.119,5.14,5.836c0,1.908-0.765,3.542-2.466,4.479
	c2.604,1.146,3.541,3.126,3.541,5.903c0,4.828-2.639,6.945-5.833,6.945H83.246z M89.532,166.846c2.395,0,3.507-1.25,3.507-3.68
	c0-2.849-1.425-3.752-4.238-3.752h-1.353v7.432H89.532z M90.607,178.41c2.085,0,3.508-1.527,3.508-4.896
	c0-3.438-1.702-4.584-4.132-4.584h-2.535v9.479H90.607z"/>
<path d="M113.865,157.332v16.842c0,2.292,0.451,4.445,3.334,4.445c2.881,0,3.367-2.188,3.367-4.445v-16.842h2.327v17.537
	c0,3.61-2.255,5.938-5.694,5.938c-3.507,0-5.66-2.396-5.66-5.834v-17.641H113.865z"/>
<path d="M140.18,157.332h6.251c2.29,0,5.172,1.979,5.172,6.147c0,2.847-1.146,5.556-3.992,6.527l4.792,9.933l-2.085,1.006
	l-5.207-10.765h-2.605v10.313h-2.326V157.332z M142.506,168.097h3.403c2.015,0,3.263-1.493,3.263-4.618
	c0-3.022-1.458-4.064-3.819-4.064h-2.847V168.097z"/>
<polygon points="177.743,156.88 179.896,157.749 173.888,171.361 173.888,180.494 171.56,180.494 171.56,171.361 165.588,157.749 
	167.741,156.88 172.742,168.652 "/>
<polygon points="209.751,168.756 201.278,168.756 201.278,177.23 199.751,177.23 199.751,168.756 191.276,168.756 191.276,167.229 
	199.751,167.229 199.751,158.755 201.278,158.755 201.278,167.229 209.751,167.229 "/>
<path d="M231.618,162.61c-0.381-1.701-1.214-3.403-3.194-3.403c-2.188,0-3.057,1.771-3.057,3.716c0,1.875,0.384,2.465,4.03,4.653
	c2.847,1.701,4.792,3.125,4.792,6.702c0,3.646-1.945,6.529-5.834,6.529c-4.099,0-5.591-2.71-5.938-6.391l2.326-0.312
	c0.313,2.568,0.869,4.514,3.681,4.514c2.015,0,3.439-1.354,3.439-4.132c0-3.057-1.98-4.099-4.377-5.487
	c-2.673-1.562-4.445-2.674-4.445-6.077c0-3.126,2.085-5.902,5.383-5.902c3.266,0,4.862,2.325,5.452,5.242L231.618,162.61z"/>
<polygon points="253.592,166.881 254.218,166.881 260.676,156.88 262.552,158.061 256.197,167.854 263.801,179.764 261.856,180.945 
	254.391,168.965 253.592,168.965 253.592,180.495 251.266,180.495 251.266,157.332 253.592,157.332 "/>
<polygon points="282.648,159.416 279.524,159.416 279.524,157.332 288.135,157.332 288.135,159.416 284.977,159.416 
	284.977,178.411 288.135,178.411 288.135,180.495 279.524,180.495 279.524,178.411 282.648,178.411 "/>
<polygon points="307.294,157.332 318.685,157.332 318.685,159.416 309.622,159.416 309.622,167.054 317.228,167.054 
	317.228,169.138 309.622,169.138 309.622,180.494 307.294,180.494 "/>
<polygon points="335.065,157.332 346.457,157.332 346.457,159.416 337.394,159.416 337.394,167.054 345,167.054 345,169.138 
	337.394,169.138 337.394,180.494 335.065,180.494 "/>
</svg>
