<?xml version="1.0" encoding="utf-8"?>
<!-- Generator: Adobe Illustrator 14.0.0, SVG Export Plug-In  -->
<!DOCTYPE svg PUBLIC "-//W3C//DTD SVG 1.1//EN" "http://www.w3.org/Graphics/SVG/1.1/DTD/svg11.dtd" [
	<!ENTITY ns_flows "http://ns.adobe.com/Flows/1.0/">
]>
<svg version="1.1"
	 xmlns="http://www.w3.org/2000/svg" xmlns:xlink="http://www.w3.org/1999/xlink" xmlns:a="http://ns.adobe.com/AdobeSVGViewerExtensions/3.0/"
	 x="0px" y="0px" width="130px" height="136px" viewBox="0 0 130 136" enable-background="new 0 0 130 136" xml:space="preserve">
<defs>
</defs>
<path fill="#F1F2F2" d="M127.941,73.839l-24.657,15.083l8.478,4.928c-14.645,26.278-41.229,28.184-41.229,28.184V65.686
	c10.39,4.143,20.79,8.262,31.187,12.385c-0.037,0.094-0.073,0.188-0.11,0.28c0.327,0.119,0.671,0.206,0.978,0.363
	c2.722,1.396,4.625,1.218,5.849-2.136c1.168-3.199,0.274-4.68-2.869-5.533c-4.338-1.178-8.643-2.508-12.896-3.958
	c-7.372-2.513-14.74-5.038-22.096-7.599c0.184-0.117,0.367-0.237,0.556-0.342c3.181-1.769,6.301-3.042,9.917-0.77
	c1.12,0.704,3.05,0.986,4.267,0.534c7.375-2.739,14.662-5.716,21.946-8.696c1.095-0.448,2.011-1.333,3.01-2.015
	c-0.099-0.214-0.195-0.428-0.294-0.641c-6.905,0.579-12.81,4.652-19.456,6.135c-0.09-0.215-0.179-0.43-0.269-0.646
	c6.248-2.66,12.496-5.321,18.744-7.981c-0.091-0.324-0.182-0.648-0.273-0.972c-1.311,0.236-2.683,0.298-3.921,0.737
	c-4.559,1.616-9.066,3.378-13.611,5.033c-0.749,0.273-1.592,0.29-2.391,0.425c-0.047-0.2-0.093-0.401-0.14-0.601
	c6.395-2.677,12.791-5.353,19.186-8.029c-0.102-0.313-0.204-0.627-0.306-0.94c-6.524,2.094-13.048,4.189-19.571,6.283
	c-0.092-0.259-0.183-0.518-0.274-0.776c6.331-2.608,13.016-4.499,18.652-8.559c-2.5,0.273-4.849,0.877-7.15,1.626
	c-4.901,1.596-9.682,3.758-14.696,4.753c-4.037,0.801-6.375,2.692-7.644,6.339c-0.666,1.913-1.972,3.018-3.902,3.627
	c-0.812,0.256-1.622,0.517-2.433,0.774l-0.01-5.254l0.022-0.022v-6.276c9.529-2.366,16.584-11.03,16.584-21.305
	C87.116,9.825,77.279,0,65.144,0C53.005,0,43.191,9.825,43.191,21.929c0,9.968,6.594,18.358,15.687,21.086v6.517l0.011,5.839
	c-1.424-0.507-2.85-1.009-4.271-1.521c-1.497-0.539-3.024-2.12-3.708-3.6c-4.249-9.189-11.035-11.239-20.103-10.186
	c-5.843,0.679-9.164,6.531-6.545,10.983c3.318,5.639,13.52,11.993,20.754,8.549c4.159-1.98,7.575-1.417,11.057-0.155
	c-1.44,0.473-2.883,0.935-4.32,1.415C45.014,63.11,38.326,65.518,31.6,67.81c-1.747,0.595-3.605,0.882-5.319,1.548
	c-1.422,0.553-3.871,1.516-3.836,2.188c0.109,2.038,1.082,4.087,2.058,5.954c0.133,0.252,2.205-0.506,3.378-0.801
	c0.163-0.043,0.317-0.121,0.475-0.184c8.74-3.452,17.49-6.88,26.217-10.364c1.447-0.577,2.886-1.171,4.327-1.759l0.021,56.717
	c-34.022-2.771-41.417-31.181-41.417-31.181l8.5-4.972L2.985,73.345L0,100.182l7.169-4.207c0,0,6.404,39.628,57.152,39.628
	c50.716,0,57.223-36.034,57.223-36.034l7.81,4.567L127.941,73.839z M53.565,21.929c0-6.397,5.158-11.578,11.579-11.578
	c6.396,0,11.599,5.181,11.599,11.578c0,6.441-5.203,11.6-11.599,11.6C58.723,33.529,53.565,28.37,53.565,21.929"/>
</svg>
